<?xml version="1.0" encoding="UTF-8" standalone="no"?>
<svg width="189px" height="89px" viewBox="0 0 189 89" version="1.1" xmlns="http://www.w3.org/2000/svg" xmlns:xlink="http://www.w3.org/1999/xlink">
    <!-- Generator: Sketch 42 (36781) - http://www.bohemiancoding.com/sketch -->
    <title>Page 1</title>
    <desc>Created with Sketch.</desc>
    <defs>
        <polygon id="path-1" points="93.9725535 0.00874566474 0 0.00874566474 0 88.7425945 93.9725535 88.7425945 93.9725535 0.00874566474"></polygon>
        <polygon id="path-3" points="0 88.9912543 188.840509 88.9912543 188.840509 0.257225434 0 0.257225434"></polygon>
    </defs>
    <g id="Symbols" stroke="none" stroke-width="1" fill="none" fill-rule="evenodd">
        <g id="RLT-logo">
            <g id="Page-1">
                <path d="M67.1407254,78.9824841 C67.2257254,79.0434841 67.2747254,79.0804841 67.2747254,79.0804841 C67.2747254,79.0804841 67.2697254,79.0439841 67.2597254,78.9829841 C67.2207254,78.9829841 67.1807254,78.9824841 67.1407254,78.9824841 Z" id="Fill-1" fill="#DC5E5B"></path>
                <path d="M41.7763942,42.768204 C41.8288942,42.886704 41.8573942,42.956204 41.8573942,42.956204 C41.8573942,42.918704 41.8543942,42.882704 41.8543942,42.845204 L41.7763942,42.768204 Z" id="Fill-3" fill="#DC5E5B"></path>
                <path d="M70.5695662,76.3728035 C70.9168205,76.9633931 71.4160951,77.4467197 72.0295777,77.751789 C72.0460402,77.7605347 72.0632743,77.7687659 72.0797367,77.7772543 C72.8899968,78.184185 73.7100315,77.2242197 73.1569968,76.5060462 C72.3732309,75.4874335 71.0251124,74.5102341 68.7141991,74.2890202 C69.5326905,74.9055896 70.136913,75.6358526 70.5695662,76.3728035" id="Fill-5" fill="#DC5E5B"></path>
                <g id="Group-9" transform="translate(0.000000, 0.248480)">
                    <mask id="mask-2" fill="white">
                        <use xlink:href="#path-1"></use>
                    </mask>
                    <g id="Clip-8"></g>
                    <path d="M80.5968309,47.2899442 L78.0814234,49.8619413 C77.8697269,49.8310743 77.6567442,49.8058662 77.4422182,49.7863171 C77.3382991,49.7757708 77.2228049,49.7662535 77.0967645,49.7580223 C77.0545795,49.7551928 77.0116228,49.7523633 76.9694379,49.7503055 C76.7891228,49.7405309 76.5913165,49.7341003 76.376276,49.7341003 L76.3706171,49.7338431 C76.3677876,49.7338431 76.3647009,49.7341003 76.3621286,49.7341003 C76.1506893,49.7341003 75.9235592,49.7405309 75.6827962,49.7546783 C75.6658194,49.7557072 75.648328,49.7562217 75.6310939,49.7572506 C75.4302009,49.7701118 75.2197905,49.7888893 75.0016633,49.8140974 C74.9525332,49.8200136 74.903146,49.8267014 74.8535014,49.8331321 C74.6953078,49.8537101 74.533513,49.8781465 74.3676026,49.9066986 C74.2858049,49.920846 74.20375,49.9352506 74.1224668,49.9511986 C74.0080014,49.9735772 73.8919928,49.9982708 73.7752124,50.0250223 C70.9639957,50.6552246 68.4755968,52.283976 66.6238309,54.5719962 C66.5047355,54.718872 66.3887269,54.8685772 66.2745188,55.0208546 L61.055672,62.0158431 C60.6381951,62.4893951 60.2665043,62.9899558 59.9444581,63.5054355 L59.1601777,64.5564587 C58.5667587,65.3520569 58.2097298,66.3755569 58.2097298,67.4924298 C58.2097298,68.5781783 58.5492673,69.573898 59.1131055,70.3594645 C59.1231373,70.3751552 59.134198,70.3905887 59.1452587,70.4078228 L59.1475737,70.4109095 C59.3788194,70.7643373 59.6725708,71.0768662 60.0357731,71.3351205 C63.9525448,74.117528 66.2192153,69.445028 67.816328,67.1644673 C70.4194494,63.3894269 73.3976055,60.3418199 80.1086171,60.3418199 L82.3487934,62.7911205 L82.3487934,64.2789124 C79.8277269,64.1955714 74.6374321,64.2735107 72.2750737,66.1355656 C70.7232327,67.3586725 69.8751604,68.6378546 69.4134408,69.6276581 C69.2004581,70.083976 69.6953598,70.5454384 70.0557327,70.2246783 C71.4511806,68.981765 73.863698,67.2187419 76.1105621,67.4577043 C76.1105621,67.4577043 73.3361286,71.3577564 76.3551835,74.5735887 C78.1578194,76.4935194 81.2805361,77.5540598 82.8434379,79.5056292 L54.2422847,79.5056292 L50.8214436,79.5056292 L50.8214436,74.2103864 L50.8224725,74.2114153 L50.8299321,57.7502737 C50.8299321,50.232346 51.7037269,43.7723864 60.0890188,39.0826523 C60.3855997,38.9167419 60.2814234,38.4673691 59.9424003,38.45245 C57.1124061,38.3251234 50.8240159,37.2149384 50.8240159,29.8539182 L50.8219581,23.6637882 C52.6703801,23.4526061 54.4388049,23.1663142 55.9422876,22.7791899 C62.0719697,21.2003402 65.9540159,17.7113344 72.1742413,17.2635049 L72.4247789,17.2542448 L74.284776,21.1980251 C68.1249986,21.6772361 64.2514408,25.1348604 58.1559697,26.7049645 C57.3369639,26.9156321 56.4397616,27.0964616 55.4942009,27.2518257 C55.0726084,27.3207621 55.0823829,27.9280714 55.5052616,27.9833749 C57.1566488,28.1999587 59.4552153,28.4175714 61.8330072,28.377187 L66.1621113,31.4283951 C66.1621113,31.4283951 66.5574668,30.2117188 67.1940997,28.2547477 C67.2532616,28.0718604 67.3059928,27.8727679 67.3538367,27.6626147 C67.7929205,27.537346 68.216828,27.3932997 68.6196431,27.2266176 C72.1420882,25.7696928 74.554091,24.9877275 75.8898627,24.6011176 L76.6792876,26.2751408 L83.7925997,41.3578113 L77.9054812,41.3578113 L76.7052673,40.015609 L74.4270217,40.015609 C75.4613251,43.3142679 77.7205361,45.9667766 80.5968309,47.2899442 L80.5968309,47.2899442 Z M43.4629957,62.5467564 L43.4663396,62.5380107 L43.4663396,75.429635 L43.4658251,75.4309211 L43.4658251,79.5056292 L42.0024697,79.5056292 L41.2899552,79.5056292 L41.2899552,79.5061436 L36.9719118,79.5061436 C36.4363685,78.4329991 36.0073165,77.3487939 35.9255188,76.1326321 C35.7516344,73.5475165 36.8538454,71.1175078 37.9668598,68.851609 C38.5152645,67.7347361 39.1176864,66.608346 39.5763194,65.440028 C39.7180506,65.079398 39.2115737,64.8229442 39.0068223,65.1511639 C38.8671488,65.37495 38.7202731,65.5959066 38.5690246,65.8153199 C36.9276691,68.1974847 34.9578367,70.3826147 33.8746604,73.1038026 C33.3270275,74.4812448 33.0307038,75.937398 33.0559118,77.4223604 C33.067487,78.1330743 33.166776,78.8234673 33.3146806,79.5061436 L28.7854552,79.5058864 C28.6709899,78.8818575 28.5781315,78.2575714 28.5583251,77.6183662 C28.5277153,76.6295916 28.6689321,75.6078922 28.9729725,74.6661899 C29.5411835,72.9072824 30.5821749,71.3670165 31.7234841,69.9314413 C32.9311575,68.4130396 34.258698,66.9944413 35.4938945,65.4991899 C36.6619552,64.0849645 37.7834581,62.5938286 38.6353887,60.963791 C38.6796315,60.8794211 38.7228454,60.7947939 38.7655448,60.7101668 C38.935828,60.3719153 38.4597038,60.092054 38.2436344,60.4030396 C37.9452529,60.8331205 37.6255217,61.2518835 37.2834118,61.6582997 C35.9571575,63.2348344 34.4395275,64.61845 32.8925737,65.9735136 C31.3397038,67.33295 29.7541662,68.6754095 28.4011604,70.2408835 C27.0980564,71.748739 26.0323714,73.4878402 25.4873107,75.4167737 C25.1058454,76.7674645 25.0044986,78.1266436 25.0281633,79.5058864 L20.3217095,79.5058864 C20.2499436,78.6001957 20.2388829,77.7081379 20.4130246,76.7962737 C20.6633049,75.4859673 21.1924176,74.2816379 21.8825535,73.1457303 C23.1607066,71.0413691 24.9576835,69.2724298 26.7443714,67.6012361 C28.6408945,65.8268951 30.6127847,64.1361523 32.4851286,62.3360887 C34.3132298,60.5782101 36.0531026,58.6981494 37.4773598,56.5932737 C37.5823078,56.4386812 37.6844263,56.2830598 37.7850014,56.1266668 C37.8325882,56.0443546 37.8804321,55.9620425 37.9269899,55.8797303 C38.1145072,55.5504818 37.6527876,55.247213 37.4210275,55.5468806 C37.101039,55.961528 36.7615014,56.3633142 36.3998425,56.752239 L36.3967558,56.7496668 C36.2033223,56.9631639 36.006802,57.1733171 35.8084812,57.3806408 C32.007461,61.3429413 27.1813974,64.0692737 22.9878512,67.5641957 C20.9601431,69.2541668 19.0088309,71.2116523 17.7931835,73.5837853 C17.2113396,74.7178922 16.7581084,75.913476 16.5250621,77.169765 C16.3805014,77.9499298 16.3179957,78.7236639 16.2930448,79.5061436 L11.1927789,79.5056292 C10.7220564,76.9801899 11.2138714,74.651528 12.1728078,72.7069038 C12.8215303,71.343609 13.7899841,70.00295 15.1023483,68.8865916 C15.7659899,68.3065483 16.4458367,67.846372 17.0889003,67.5302419 C17.1310853,67.5078633 17.1701835,67.4854847 17.211854,67.4631061 L17.211854,67.4633633 C17.2177702,67.4600194 17.2234292,67.4566754 17.2293454,67.4535887 C17.612354,67.2454934 17.9693829,67.039713 18.2986315,66.8370194 C21.2842471,65.0894298 22.9613569,63.8632361 24.5080535,62.7337592 C24.8195535,62.506372 24.6130014,62.0140425 24.2323078,62.0780916 C23.3942673,62.2193084 22.4006055,62.3121668 21.3099697,62.3746725 C19.2205275,62.4731899 17.2666431,62.4932535 15.6288887,62.4973691 C15.1877471,62.4981408 14.7450621,62.498398 14.3028916,62.498398 L14.3028916,61.0106061 L16.5430679,58.5615627 C28.4564639,58.5615627 37.4974234,48.7486697 38.7465101,47.1880829 C39.995854,45.627239 40.7685592,42.1973951 39.2167182,40.3474298 C37.8526517,38.7215078 35.5782645,38.2945136 33.9309928,39.4160165 C32.2832066,40.5375194 30.2192298,43.5879558 27.2184379,45.3458344 C24.2171315,47.103713 21.2039928,48.1187246 21.2039928,48.1187246 L18.688328,45.5467275 L18.688328,45.5464702 L18.6878136,45.5464702 L18.6893569,45.5459558 L23.4205043,42.45745 C24.1042095,41.9401697 24.8174957,41.3647564 25.5305246,40.7389269 L25.0093858,40.0166379 C23.9323829,38.5224153 22.00525,38.2127159 20.5948829,39.3069529 L16.3601806,42.894476 L10.4954408,38.7209934 L18.7181662,27.0154355 C19.3702327,27.1250136 21.4465564,27.4967043 24.217646,28.2141061 C25.9580332,28.664765 27.6235679,29.1146523 29.3657558,28.9901552 L29.8068974,26.4400223 C29.8068974,26.4400223 30.937146,27.01595 32.755987,27.9422188 C33.3478627,27.6085974 33.9556864,27.1854616 34.5851171,26.6524905 C36.3998425,25.1155685 38.0422269,23.4649529 38.8504292,22.8921118 C39.1634725,22.6703835 38.9749263,22.1775396 38.5937182,22.2197246 C37.577935,22.3321321 36.4389408,22.4766928 35.8043656,22.5885858 L35.8110535,22.5885858 C31.1789379,23.288239 26.1499234,24.8876668 19.5104205,23.6877101 L20.3633801,19.4676697 C27.0406951,20.5099471 32.0339552,18.7842217 36.6519234,17.9695887 L36.6454928,17.9695887 C39.4348454,17.4065223 43.043461,17.2686494 43.4251835,17.2552737 C43.2037124,23.8088633 41.7336691,29.450846 34.2008223,33.6634269 C33.9044986,33.8293373 34.0084176,34.2787101 34.3479552,34.2941436 C37.1730621,34.4209558 43.443961,35.5283113 43.4650535,42.8564066 C43.4653107,44.2680598 43.4663396,45.1508575 43.4663396,45.1508575 L43.4604234,45.1508575 L43.4604234,45.1531725 L43.4604234,51.7708113 L43.4629957,62.5467564 Z M13.2932818,16.1975627 C14.3332442,16.3066263 15.3107009,16.4205772 16.1623743,16.5252679 L16.6757962,13.9995714 C16.8334754,13.2240367 17.5269552,12.6751176 18.3176662,12.7036697 C19.7897673,12.7569153 22.1971402,12.9783864 24.306646,13.7927621 L24.306646,13.1244905 C24.306646,12.0945598 25.2558078,11.3228835 26.2625882,11.5407535 C27.276828,11.760424 28.6216026,12.0053026 30.1410332,12.1642679 C31.6666373,12.3242621 33.0628569,12.4953171 34.1102789,12.6308749 C34.1102789,11.5999153 35.0594408,10.8310685 36.06725,11.0479095 C37.3754986,11.3287997 39.2321517,11.6557332 41.3020448,11.7997795 C42.4847673,11.8826061 43.3976604,12.875239 43.3976604,14.060791 C43.3976604,14.060791 39.5313049,14.1811725 36.5827298,14.7763922 L36.5891604,14.776135 C32.0938887,15.569161 27.3717442,17.2064009 20.8287009,16.3506118 C19.8862269,16.2271436 19.0119176,16.0465714 18.2055159,15.8279298 L17.5971777,18.8287217 C14.7090506,17.9693315 12.773172,16.7503402 11.7743656,16.0043864 C12.2553772,16.0758951 12.7631402,16.142002 13.2932818,16.1975627 L13.2932818,16.1975627 Z M54.2427991,16.7704038 C54.8678569,16.7704038 55.4525303,16.9581783 55.956435,17.2856263 C56.4544234,17.6089587 57.097487,17.3612506 57.3089263,16.7624298 C57.9157211,15.0410772 59.4148309,13.8226003 61.170909,13.8226003 C61.9173772,13.8226003 62.617802,14.0427853 63.2235679,14.4286234 C63.6901749,14.7257188 64.269961,14.5520916 64.5444205,14.0355829 C65.2677384,12.674346 66.5937355,11.7614529 68.112909,11.7614529 C69.6606344,11.7614529 71.0072095,12.710872 71.7215246,14.1148084 C67.9781228,14.4515165 64.9999668,15.8091523 62.1198136,17.126661 C60.0831026,18.0580743 57.9774552,19.0216408 55.5574783,19.6446408 C54.2790679,19.9738893 52.6847847,20.2509211 50.8214436,20.4695627 C50.8842066,18.4153604 52.3900043,16.7704038 54.2427991,16.7704038 L54.2427991,16.7704038 Z M54.0846055,12.5297853 C54.4573251,12.4955743 54.8189841,12.5187246 55.1631517,12.5910049 C56.3487038,12.8394847 57.5494321,12.4340974 58.4137095,11.5842246 C59.1581199,10.8519038 60.2207182,10.441372 61.3766893,10.579502 C62.1609697,10.6731321 62.8709118,11.0291321 63.4185448,11.553872 C63.5386691,11.6685945 63.5530737,11.8579124 63.4470968,11.9854962 L63.4440101,11.9896118 C63.3568107,12.0955887 63.2155939,12.1349442 63.0859523,12.0899298 C62.4704118,11.8754038 61.8240043,11.7647968 61.1703945,11.7647968 C59.1275101,11.7647968 57.2299581,12.8682939 56.0845332,14.6246292 C55.9523194,14.8270656 55.7051257,14.9194095 55.4700217,14.8615338 C55.0697789,14.7630165 54.6582182,14.7128575 54.2427991,14.7128575 C52.948698,14.7128575 51.7618598,15.1864095 50.8265882,15.9848373 L50.8240159,15.9835512 C50.8867789,14.1922332 52.3046055,12.692609 54.0846055,12.5297853 L54.0846055,12.5297853 Z M72.2601546,9.17067832 C73.1995419,9.17067832 74.0527587,9.53362341 74.6937645,10.1231841 C73.8647269,10.3220194 73.0966517,10.7011697 72.4450997,11.2292535 C72.243435,11.3920772 71.9586864,11.3954211 71.7547066,11.2359413 C71.1502269,10.7634182 70.4696084,10.4105049 69.7447471,10.197265 C70.3942413,9.56294711 71.2808974,9.17067832 72.2601546,9.17067832 L72.2601546,9.17067832 Z M79.6116575,15.3536061 C79.4794436,15.2795251 79.3202211,15.1987564 79.1388772,15.1159298 C77.0990795,14.1402737 75.2267355,13.909028 72.6629697,14.0507592 C73.1879668,12.7119009 74.4861835,11.7614529 76.0110159,11.7614529 C77.9970535,11.7614529 79.606513,13.3688546 79.6116575,15.3536061 L79.6116575,15.3536061 Z M-0.000128612717,88.7425945 L93.9725535,88.7425945 L93.9725535,0.00856560694 L-0.000128612717,0.00856560694 L-0.000128612717,88.7425945 Z" id="Fill-7" fill="#DC5E5B" mask="url(#mask-2)"></path>
                </g>
                <path d="M55.917774,70.0328396 C55.917774,70.0328396 54.8420572,73.4567673 58.6883491,75.4201691 C59.2879416,75.7265246 59.8883058,75.9235592 60.4765803,76.0431691 C60.2036642,76.1944176 59.9520977,76.3536402 59.7244532,76.5133772 C59.4451064,76.7096402 59.6706931,77.1428078 59.9947971,77.0355448 C63.3948029,75.913013 66.3179127,77.4046633 67.6567711,78.2995506 C67.9541237,78.4981286 68.3314734,78.2025766 68.2072335,77.8668974 C67.8476324,76.8958714 66.9247075,75.5343772 64.5605486,75.2149032 C64.2745139,75.1760621 63.996196,75.1603714 63.7245659,75.1608858 C58.5031468,74.7567847 55.917774,70.0328396 55.917774,70.0328396" id="Fill-10" fill="#DC5E5B"></path>
                <path d="M70.6529587,42.0811806 C68.3204384,42.8135014 64.8970251,44.8023685 62.79395,50.1938136 C59.7514876,57.9939176 55.1677303,57.8316084 54.7355916,64.5688569 C54.7024095,65.0879379 55.3506176,65.2453598 55.5088113,64.7556026 C56.7928806,60.772724 58.3403488,60.2837384 62.2223951,55.655224 C66.178265,50.9384812 67.0080743,45.3291662 70.8880627,42.7124118 C71.1980194,42.5035448 71.0012419,41.9718598 70.6529587,42.0811806" id="Fill-12" fill="#DC5E5B"></path>
                <path d="M113.833186,18.471204 C115.169215,18.471204 115.905652,17.4351 115.905652,15.2265624 C115.905652,13.3449584 115.332811,11.9816636 113.778655,11.9816636 L112.142701,11.9816636 L112.142701,18.471204 L113.833186,18.471204 Z M109.088921,9.41866936 L114.024048,9.41866936 C117.186892,9.41866936 118.959432,11.3000162 118.959432,14.9811694 C118.959432,17.7620335 118.005126,19.4525191 116.505501,20.0798919 L119.177302,28.8597676 L116.014458,28.8597676 L113.751389,20.7615393 L112.142701,20.7615393 L112.142701,28.8597676 L109.088921,28.8597676 L109.088921,9.41866936 Z" id="Fill-14" fill="#DC5E5B"></path>
                <path d="M128.120233,21.3069601 L126.620609,12.826752 L126.539068,12.826752 L124.984655,21.3069601 L128.120233,21.3069601 Z M124.68473,9.36398324 L128.829403,9.36398324 L132.646629,28.8596133 L129.592849,28.8596133 L128.611019,23.7881566 L124.493869,23.7881566 L123.566828,28.8596133 L120.730918,28.8596133 L124.68473,9.36398324 Z" id="Fill-16" fill="#DC5E5B"></path>
                <polygon id="Fill-18" fill="#DC5E5B" points="134.690799 9.41856647 137.717571 9.41856647 137.717571 26.2418815 143.225282 26.2418815 143.225282 28.8596647 134.690799 28.8596647"></polygon>
                <polygon id="Fill-20" fill="#DC5E5B" points="145.269453 9.41856647 153.776669 9.41856647 153.776669 11.9815607 148.296224 11.9815607 148.296224 17.4895289 152.686034 17.4895289 152.686034 20.079789 148.296224 20.079789 148.296224 26.2418815 153.803935 26.2418815 153.803935 28.8596647 145.269453 28.8596647"></polygon>
                <mask id="mask-4" fill="white">
                    <use xlink:href="#path-3"></use>
                </mask>
                <g id="Clip-23"></g>
                <polygon id="Fill-22" fill="#DC5E5B" mask="url(#mask-4)" points="156.121176 28.8596647 159.174957 28.8596647 159.174957 9.41856647 156.121176 9.41856647"></polygon>
                <path d="M161.683393,24.3878777 L161.683393,13.8629847 C161.683393,10.891002 163.864665,9.09145289 166.864171,9.09145289 C169.672558,9.09145289 171.799298,10.7274066 171.799298,13.3994645 L171.799298,15.4716725 L169.018177,15.4716725 L169.018177,13.6721234 C169.018177,12.4451581 168.145668,11.681713 166.891179,11.681713 C165.418821,11.681713 164.764697,12.6632853 164.764697,13.9720483 L164.764697,24.2518055 C164.764697,25.642109 165.527885,26.4873517 166.891179,26.4873517 C168.363795,26.4873517 168.909113,25.642109 168.909113,24.4696754 L168.909113,20.9523749 L166.618778,20.9523749 L166.618778,18.6072506 L171.826564,18.6072506 L171.826564,24.6607939 C171.826564,27.4146494 169.945217,29.1321436 166.891179,29.1321436 C163.864665,29.1321436 161.683393,27.4964471 161.683393,24.3878777" id="Fill-24" fill="#DC5E5B" mask="url(#mask-4)"></path>
                <polygon id="Fill-25" fill="#DC5E5B" mask="url(#mask-4)" points="174.334409 9.41856647 177.388189 9.41856647 177.388189 17.5713266 181.478074 17.5713266 181.478074 9.41856647 184.504845 9.41856647 184.504845 28.8596647 181.478074 28.8596647 181.478074 20.352448 177.388189 20.352448 177.388189 28.8596647 174.334409 28.8596647"></polygon>
                <polygon id="Fill-26" fill="#DC5E5B" mask="url(#mask-4)" points="109.088818 34.8838844 112.115589 34.8838844 112.115589 51.7071994 117.6233 51.7071994 117.6233 54.3249827 109.088818 54.3249827"></polygon>
                <polygon id="Fill-27" fill="#DC5E5B" mask="url(#mask-4)" points="119.667445 54.3249827 122.721225 54.3249827 122.721225 34.8838844 119.667445 34.8838844"></polygon>
                <polygon id="Fill-28" fill="#DC5E5B" mask="url(#mask-4)" points="128.338026 37.4742217 124.629864 37.4742217 124.629864 34.8839616 137.812925 34.8839616 137.812925 37.4742217 131.392063 37.4742217 131.392063 54.3250598 128.338026 54.3250598"></polygon>
                <polygon id="Fill-29" fill="#DC5E5B" mask="url(#mask-4)" points="139.844105 37.4742217 136.135943 37.4742217 136.135943 34.8839616 146.551773 34.8839616 146.551773 37.4742217 142.898143 37.4742217 142.898143 54.3250598 139.844105 54.3250598"></polygon>
                <polygon id="Fill-30" fill="#DC5E5B" mask="url(#mask-4)" points="148.487266 34.8838844 151.514037 34.8838844 151.514037 51.7071994 157.021748 51.7071994 157.021748 54.3249827 148.487266 54.3249827"></polygon>
                <polygon id="Fill-31" fill="#DC5E5B" mask="url(#mask-4)" points="159.065919 34.8838844 167.573136 34.8838844 167.573136 37.4468786 162.09269 37.4468786 162.09269 42.9548468 166.4825 42.9548468 166.4825 45.5451069 162.09269 45.5451069 162.09269 51.7071994 167.600401 51.7071994 167.600401 54.3249827 159.065919 54.3249827"></polygon>
                <polygon id="Fill-32" fill="#DC5E5B" mask="url(#mask-4)" points="111.951711 62.9395396 108.243549 62.9395396 108.243549 60.3492795 118.659379 60.3492795 118.659379 62.9395396 115.005749 62.9395396 115.005749 79.7903777 111.951711 79.7903777"></polygon>
                <polygon id="Fill-33" fill="#DC5E5B" mask="url(#mask-4)" points="120.594897 60.3492023 123.648677 60.3492023 123.648677 68.5019624 127.738562 68.5019624 127.738562 60.3492023 130.765334 60.3492023 130.765334 79.7903006 127.738562 79.7903006 127.738562 71.2830838 123.648677 71.2830838 123.648677 79.7903006 120.594897 79.7903006"></polygon>
                <polygon id="Fill-34" fill="#DC5E5B" mask="url(#mask-4)" points="133.545838 60.3492023 142.053054 60.3492023 142.053054 62.9121965 136.572609 62.9121965 136.572609 68.4201647 140.962418 68.4201647 140.962418 71.0104249 136.572609 71.0104249 136.572609 77.1725173 142.08032 77.1725173 142.08032 79.7903006 133.545838 79.7903006"></polygon>
                <path d="M151.050491,72.237596 L149.550867,63.7573879 L149.469327,63.7573879 L147.914913,72.237596 L151.050491,72.237596 Z M147.614988,60.2946191 L151.759662,60.2946191 L155.576887,79.7902491 L152.523107,79.7902491 L151.541277,74.7187925 L147.424127,74.7187925 L146.497087,79.7902491 L143.661176,79.7902491 L147.614988,60.2946191 Z" id="Fill-35" fill="#DC5E5B" mask="url(#mask-4)"></path>
                <polygon id="Fill-36" fill="#DC5E5B" mask="url(#mask-4)" points="159.284458 62.9395396 155.576296 62.9395396 155.576296 60.3492795 165.992125 60.3492795 165.992125 62.9395396 162.338495 62.9395396 162.338495 79.7903777 159.284458 79.7903777"></polygon>
                <path d="M172.671987,69.4018399 C174.008016,69.4018399 174.744452,68.3657358 174.744452,66.1571983 C174.744452,64.2755942 174.171611,62.9122994 172.617455,62.9122994 L170.981501,62.9122994 L170.981501,69.4018399 L172.671987,69.4018399 Z M167.927721,60.3493052 L172.862848,60.3493052 C176.025692,60.3493052 177.798232,62.230652 177.798232,65.9118052 C177.798232,68.6926694 176.843926,70.3831549 175.344302,71.0105277 L178.016102,79.7904035 L174.853258,79.7904035 L172.590189,71.6921751 L170.981501,71.6921751 L170.981501,79.7904035 L167.927721,79.7904035 L167.927721,60.3493052 Z" id="Fill-37" fill="#DC5E5B" mask="url(#mask-4)"></path>
                <polygon id="Fill-38" fill="#DC5E5B" mask="url(#mask-4)" points="180.306103 60.3492023 188.81332 60.3492023 188.81332 62.9121965 183.332875 62.9121965 183.332875 68.4201647 187.722684 68.4201647 187.722684 71.0104249 183.332875 71.0104249 183.332875 77.1725173 188.840586 77.1725173 188.840586 79.7903006 180.306103 79.7903006"></polygon>
            </g>
        </g>
    </g>
</svg>