<?xml version="1.0" encoding="UTF-8" standalone="no"?>
<svg width="238px" height="224px" viewBox="0 0 238 224" version="1.1" xmlns="http://www.w3.org/2000/svg" xmlns:xlink="http://www.w3.org/1999/xlink">
    <!-- Generator: Sketch 42 (36781) - http://www.bohemiancoding.com/sketch -->
    <title>Page 1 Copy 27</title>
    <desc>Created with Sketch.</desc>
    <defs>
        <polygon id="path-1" points="237.119431 111.620753 237.119431 0.0219984634 0 0.0219984634 0 111.620753 0 223.219509 237.119431 223.219509"></polygon>
    </defs>
    <g id="Symbols" stroke="none" stroke-width="1" fill="none" fill-rule="evenodd">
        <g id="Footer-block" transform="translate(-25.000000, -27.000000)">
            <g id="Footer">
                <g id="Logo-big" transform="translate(25.000000, 27.000000)">
                    <g id="Page-1-Copy-27">
                        <path d="M169.415084,198.669288 C169.535994,198.755718 169.605696,198.808142 169.605696,198.808142 C169.605696,198.808142 169.599294,198.756426 169.58507,198.669288 L169.415084,198.669288" id="Fill-1" fill="#5D212B"></path>
                        <path d="M105.413523,107.577533 C105.488914,107.745433 105.529455,107.843906 105.529455,107.843906 C105.529455,107.790065 105.525187,107.739765 105.524476,107.686633 L105.413523,107.577533 Z" id="Fill-3" fill="#5D212B"></path>
                        <path d="M178.067618,192.104688 C178.943841,193.590231 180.203005,194.80597 181.750998,195.573975 L181.878213,195.637382 C183.922732,196.660958 185.991915,194.246303 184.596449,192.439841 C182.618134,189.877667 179.217092,187.419662 173.385994,186.863877 C175.450634,188.414122 176.975261,190.250994 178.067618,192.104688" id="Fill-5" fill="#5D212B"></path>
                        <g id="Group-9" transform="translate(0.000000, 0.625015)">
                            <mask id="mask-2" fill="white">
                                <use xlink:href="#path-1"></use>
                            </mask>
                            <g id="Clip-8"></g>
                            <path d="M203.369289,118.951321 L197.021544,125.42081 C196.487372,125.343169 195.949956,125.279761 195.408645,125.230588 C195.146428,125.204061 194.855002,125.179474 194.536966,125.15877 C194.430521,125.1523 194.322778,125.145182 194.215685,125.140006 C193.760698,125.11542 193.262225,125.099244 192.718967,125.098597 L192.705337,125.098597 C192.697548,125.098597 192.690408,125.099244 192.683269,125.099244 C192.149747,125.099244 191.576632,125.11542 190.969767,125.151005 C190.926281,125.152947 190.882794,125.154888 190.838658,125.157476 C190.331747,125.189179 189.800821,125.236411 189.251073,125.300466 C189.126455,125.315347 189.001836,125.332169 188.877218,125.347698 C188.477401,125.399459 188.069146,125.460925 187.651156,125.532744 C187.444108,125.568329 187.237708,125.605209 187.031958,125.645324 C186.743779,125.701614 186.451055,125.763727 186.155736,125.831017 C179.062228,127.4162 172.783283,131.513091 168.110745,137.268277 C167.810234,137.637722 167.51751,138.014283 167.22998,138.397316 L154.06068,155.992204 C153.007915,157.183356 152.070033,158.442445 151.256768,159.73906 L149.278453,162.382111 C147.780437,164.383324 146.880199,166.958438 146.880199,169.767771 C146.880199,172.498169 147.736301,175.003406 149.159027,176.979385 C149.18434,177.018853 149.212249,177.057027 149.240808,177.101024 C149.240808,177.101024 149.243404,177.104906 149.246,177.108788 C149.829499,177.997785 150.570719,178.783906 151.487832,179.433508 C161.370323,186.432255 167.090433,174.679252 171.120407,168.942182 C177.688182,159.44661 185.202925,151.78144 202.137385,151.78144 L207.789993,157.941656 L207.789993,161.683983 C201.427969,161.474351 188.331364,161.671043 182.371104,166.354128 C178.455363,169.431324 176.314784,172.648923 175.149733,175.137985 C174.612316,176.286434 175.861095,177.447176 176.77042,176.64035 C180.291536,173.51398 186.379659,169.078702 192.048494,169.680425 C192.048494,169.680425 185.047801,179.490445 192.666393,187.57941 C197.214962,192.408719 205.094473,195.076357 209.037474,199.985249 L136.869195,199.985249 L128.237431,199.985249 L128.237431,186.665826 L128.239378,186.668414 L128.258849,145.262777 C128.258849,126.35251 130.463685,110.103409 151.622186,98.307057 C152.370545,97.8897332 152.107678,96.7594004 151.251576,96.7212265 C144.111336,96.4016018 128.243921,93.609091 128.243921,75.0928549 L128.23808,59.5231189 C132.902179,58.9919207 137.364423,58.2717945 141.158142,57.297392 C156.625741,53.3266693 166.42061,44.5499294 182.116026,43.4234787 L182.748204,43.4008332 L187.44216,53.3208462 C171.899272,54.5255856 162.125172,63.2233898 146.743898,67.172114 C144.67796,67.7026652 142.414061,68.1575158 140.027491,68.547665 C138.964341,68.7217117 138.988356,70.2486638 140.0554,70.3884188 C144.222325,70.9332043 150.022917,71.4805778 156.022121,71.3783496 L166.946343,79.0538723 C166.946343,79.0538723 167.943939,75.9934979 169.549697,71.0710182 C169.699629,70.6109915 169.832685,70.1095559 169.95276,69.5815928 C171.060694,69.2658501 172.130984,68.9041695 173.147402,68.4849047 C182.035543,64.8195725 188.12172,62.852651 191.491606,61.8801895 L193.484201,66.0909543 L211.432483,104.029246 L196.577591,104.029246 L193.549106,100.653128 L187.801087,100.653128 C190.410283,108.950431 196.110921,115.623083 203.369289,118.951321 L203.369289,118.951321 Z M109.669303,157.32764 L109.67774,157.305642 L109.67774,189.732671 L109.677091,189.735906 L109.677091,199.985249 L105.983976,199.985249 L104.186097,199.985249 L104.186097,199.986543 L93.2910821,199.986543 C91.9391033,197.287202 90.8571308,194.56004 90.6507317,191.500959 C90.2119714,184.998472 92.9925174,178.885488 95.8009727,173.186591 C97.1847552,170.377258 98.7054879,167.543986 99.8627507,164.604603 C100.220379,163.698137 98.9423925,163.053064 98.4250967,163.878653 C98.0726606,164.441555 97.7027,164.99734 97.3210564,165.54989 C93.1794449,171.541236 88.2083427,177.037617 85.4758267,183.882374 C84.0933424,187.347132 83.3462816,191.009876 83.4092398,194.744439 C83.4390962,196.532784 83.689631,198.269369 84.0628368,199.986543 L72.6336505,199.985896 C72.3454707,198.416241 72.1105133,196.845292 72.0605361,195.23811 C71.9832987,192.750343 72.3402783,190.181051 73.1074597,187.812335 C74.5405703,183.387408 77.1672905,179.513738 80.0471417,175.902755 C83.0944487,172.083433 86.4448639,168.515153 89.5609706,164.754063 C92.5083234,161.196135 95.3388465,157.446044 97.4878632,153.345918 C97.5995005,153.133698 97.7091905,152.920831 97.8169334,152.707963 C98.246607,151.85714 97.0452086,151.153189 96.5000035,151.935429 C95.7464522,153.017236 94.9403275,154.070574 94.0770861,155.092855 C90.7299163,159.058402 86.9011486,162.538688 82.9970907,165.946509 C79.0794027,169.365976 75.0779867,172.743387 71.6646134,176.680465 C68.3765074,180.473906 65.687478,184.848365 64.3121333,189.699673 C63.3495866,193.097789 63.0932104,196.516609 63.1535724,199.985896 L51.2778372,199.985896 C51.0967512,197.707114 51.0681929,195.463918 51.5076022,193.170254 C52.1391314,189.874367 53.4748839,186.844402 55.2156459,183.987837 C58.4407936,178.694618 62.9750827,174.245106 67.4834096,170.040811 C72.2688824,165.578358 77.245177,161.325538 81.9689897,156.797736 C86.5818142,152.376045 90.9726624,147.646375 94.5664726,142.351863 C94.8306374,141.963655 95.0889608,141.572211 95.3420917,141.17818 C95.4628157,140.971783 95.5835397,140.764738 95.7010184,140.557694 C96.1741786,139.729517 95.0084782,138.966041 94.4243298,139.720458 C93.6169071,140.762797 92.7601562,141.77408 91.8469377,142.752364 L91.8397981,142.745894 C91.3517097,143.282915 90.8558327,143.811526 90.3547632,144.333019 C80.763697,154.299617 68.5868008,161.157314 58.0052786,169.948288 C52.8887884,174.199168 47.9644181,179.122942 44.8969904,185.089054 C43.4294801,187.942384 42.2851984,190.949704 41.6978048,194.109718 C41.3330367,196.072111 41.1753166,198.018328 41.1123584,199.986543 L28.242922,199.985249 C27.0551537,193.632869 28.2961444,187.775455 30.7151675,182.883385 C32.3527299,179.454212 34.795768,176.081977 38.1072399,173.274585 C39.7817984,171.81557 41.4978963,170.658062 43.1205305,169.862882 C43.2263263,169.805945 43.3256315,169.750302 43.4301291,169.694012 L43.4307782,169.694659 C43.4450573,169.686248 43.4593365,169.677837 43.4742648,169.669425 C44.4413547,169.146638 45.3422413,168.629027 46.1723809,168.119181 C53.7065961,163.72337 57.937777,160.638409 61.8411859,157.798019 C62.6271899,157.226059 62.1053507,155.987675 61.1454003,156.148782 C59.0301344,156.503992 56.52284,156.737564 53.7708524,156.894788 C48.4985893,157.142594 43.5683775,157.193062 39.4358527,157.203414 C38.3227257,157.205355 37.2057043,157.206002 36.089981,157.206002 L36.089981,153.463675 L41.7425895,147.303458 C71.8035109,147.303458 94.6164497,122.619888 97.7689035,118.694456 C100.920708,114.769025 102.871114,106.141745 98.9547245,101.488423 C95.5127929,97.3986498 89.7738602,96.3246072 85.6173204,99.1455866 C81.4601316,101.966566 76.2521248,109.639501 68.6796155,114.061192 C61.1071062,118.482883 53.5040913,121.035352 53.5040913,121.035352 L47.1556972,114.565862 L47.1556972,114.565862 L47.1550482,114.565862 L47.1582935,114.563921 L59.0969869,106.795229 C60.8215225,105.494731 62.6219975,104.047362 64.4205252,102.473178 L63.1061915,100.656363 C60.3879547,96.8978613 55.5252445,96.1182098 51.9664831,98.8706058 L41.2817614,107.895152 L26.4833374,97.3967088 L47.2309875,67.9537065 C48.8763386,68.2293343 54.1154999,69.164269 61.1077552,70.96879 C65.4999015,72.1023579 69.7025241,73.2339847 74.0979156,72.9208301 L75.2116918,66.506337 C75.2116918,66.506337 78.0629846,67.9550005 82.6530922,70.2848966 C84.1459157,69.4457199 85.6802786,68.3813825 87.268513,67.0401232 C91.8469377,63.1748638 95.9911454,59.0223303 98.0311212,57.582078 C98.8210195,57.0243522 98.3446141,55.7846741 97.3827165,55.8907844 C94.8202526,56.1735293 91.9462429,56.537151 90.3443784,56.8186019 L90.3612538,56.8186019 C78.6730951,58.578479 65.9840955,62.6016097 49.2307219,59.5832912 L51.3829839,48.9683855 C68.2311194,51.5900848 80.8305495,47.2486233 92.4830103,45.1995311 L92.4667839,45.2001781 C99.5051221,43.7838653 108.610696,43.437066 109.573892,43.4034213 C109.015706,59.8873876 105.305715,74.0796316 86.2988268,84.6757738 C85.5511169,85.0930976 85.8133346,86.2234304 86.6694364,86.2616042 C93.797993,86.5805819 109.621922,89.3666226 109.675144,107.798747 C109.675793,111.350205 109.67774,113.570109 109.67774,113.570109 L109.662812,113.570109 L109.662812,113.576579 L109.662812,130.221651 L109.669303,157.32764 Z M33.5424453,40.7429012 C36.1665693,41.017235 38.6329733,41.3038621 40.7826391,41.5671966 L42.0781503,35.2141698 C42.4753711,33.2634237 44.2258689,31.8820496 46.2210599,31.9545151 C49.9355942,32.0884469 56.0094385,32.6455257 61.3329769,34.6939708 L61.3329769,33.0130294 C61.3329769,30.4223868 63.7279849,28.4813459 66.267732,29.0293665 C68.8275997,29.5819161 72.2208524,30.1978731 76.0548125,30.5977275 C79.9037008,31.00017 83.4274133,31.4304341 86.0697108,31.7714102 C86.0697108,29.1781796 88.4647189,27.2442559 91.0083603,27.7896884 C94.3094473,28.4962272 98.9943168,29.3185816 104.216603,29.6809092 C107.200952,29.8892476 109.505092,32.3860732 109.505092,35.368159 C109.505092,35.368159 99.7491663,35.6709614 92.3090639,37.1681509 L92.3252902,37.1675039 C80.9824281,39.1622469 69.0671005,43.2804887 52.557122,41.1278743 C50.1789893,40.8173078 47.9722068,40.3631042 45.9374235,39.8131427 L44.4030606,47.3612037 C37.1154858,45.1995311 32.2307078,42.1333335 29.7097833,40.256994 C30.9235137,40.4368638 32.2053947,40.6031463 33.5424453,40.7429012 L33.5424453,40.7429012 Z M136.869845,42.1838006 C138.447045,42.1838006 139.922993,42.6561205 141.19384,43.4797689 C142.450408,44.293065 144.073691,43.6699909 144.606564,42.1637432 C146.137682,37.8332809 149.920367,34.7690244 154.351456,34.7690244 C156.235659,34.7690244 158.003032,35.3228681 159.530905,36.2933885 C160.708937,37.0406892 162.171904,36.603955 162.864445,35.3041047 C164.688934,31.8807555 168.035455,29.5845042 171.868117,29.5845042 C175.773473,29.5845042 179.171269,31.9726315 180.97434,35.5040319 C171.528013,36.3509727 164.01327,39.7659107 156.745815,43.0799145 C151.607257,45.4227508 146.293455,47.8458169 140.187158,49.4135309 C136.96201,50.2417084 132.938526,50.937895 128.237431,51.4885036 C128.3958,46.3214528 132.194711,42.1838006 136.869845,42.1838006 L136.869845,42.1838006 Z M136.471326,31.5171339 C137.411804,31.4310811 138.324374,31.4893123 139.192159,31.6704761 C142.183647,32.2961383 145.214079,31.2764448 147.39425,29.1387118 C149.27326,27.296017 151.953852,26.2640302 154.871348,26.6114765 C156.850313,26.8469895 158.641701,27.7424564 160.023537,29.0623642 C160.325996,29.3509322 160.362343,29.8264873 160.095582,30.148053 L160.087144,30.1584053 C159.867764,30.4243279 159.511433,30.523968 159.18431,30.4107406 C157.630476,29.8711312 156.000053,29.5929153 154.350807,29.5929153 C149.195374,29.5929153 144.407954,32.3686038 141.517069,36.7857659 C141.183455,37.2956126 140.559715,37.5278905 139.967129,37.3823124 C138.957201,37.1345062 137.918066,37.0076915 136.869845,37.0076915 C133.604455,37.0076915 130.610371,38.1994907 128.249763,40.207174 L128.243921,40.2045859 C128.401641,35.698783 131.979874,31.9266935 136.471326,31.5171339 L136.471326,31.5171339 Z M182.333459,23.0677829 C184.703803,23.0677829 186.856714,23.9807191 188.474156,25.4630273 C186.382256,25.9638159 184.443532,26.916867 182.799479,28.2451859 C182.29127,28.6553926 181.572768,28.6638038 181.058068,28.2620083 C179.532792,27.0740913 177.815396,26.1863886 175.986363,25.6493673 C177.624574,24.0544787 179.861862,23.0677829 182.333459,23.0677829 L182.333459,23.0677829 Z M200.883413,38.6194025 C200.549799,38.4337096 200.148035,38.2305473 199.690452,38.0222089 C194.543457,35.5674392 189.818995,34.986421 183.349877,35.3429255 C184.674595,31.9752195 187.950369,29.5845042 191.79796,29.5845042 C196.809303,29.5845042 200.870432,33.6276923 200.883413,38.6194025 L200.883413,38.6194025 Z M0,223.219509 L237.119431,223.219509 L237.119431,0.0218043594 L0,0.0218043594 L0,223.219509 Z" id="Fill-7" fill="#5D212B" mask="url(#mask-2)"></path>
                        </g>
                        <path d="M141.096936,176.157807 C141.096936,176.157807 138.381945,184.769559 148.087894,189.708861 C149.600189,190.478807 151.115729,190.975067 152.599466,191.275928 C151.911469,191.656372 151.276045,192.056873 150.702282,192.458669 C149.99741,192.95234 150.565981,194.041264 151.384437,193.772107 C159.963629,190.948539 167.339475,194.700571 170.71715,196.950885 C171.468105,197.451026 172.420267,196.707607 172.106774,195.863255 C171.198748,193.420131 168.869944,189.996135 162.90514,189.191897 C162.182743,189.094845 161.480467,189.055377 160.795716,189.056024 C147.620575,188.040213 141.096936,176.157807 141.096936,176.157807" id="Fill-10" fill="#5D212B"></path>
                        <path d="M178.277457,105.849424 C172.391839,107.690825 163.753583,112.694181 158.44692,126.255587 C150.769913,145.875628 139.204426,145.467363 138.114016,162.413944 C138.029639,163.719617 139.665903,164.114943 140.064422,162.883676 C143.305147,152.865317 147.209854,151.634697 157.004723,139.992334 C166.98652,128.128692 169.081016,114.018618 178.871342,107.437196 C179.653451,106.911821 179.156276,105.574443 178.277457,105.849424" id="Fill-12" fill="#5D212B"></path>
                    </g>
                </g>
            </g>
        </g>
    </g>
</svg>